<svg xmlns="http://www.w3.org/2000/svg" viewBox="0 0 490 184">
  <rect id="Rectangle_445" data-name="Rectangle 445" width="490" height="184" fill="#dbe6f9"/>
  <g id="java" transform="translate(135.858 34)">
    <g id="Group_14" data-name="Group 14" transform="translate(92.746 0)">
      <path id="Path_150" data-name="Path 150" d="M199.428,21.486c-5.358,3.769-11.431,8.04-14.685,15.106-5.652,12.329,11.565,25.777,12.3,26.343a.951.951,0,0,0,1.423-1.191c-.062-.12-6.242-12.124-6.013-20.735.081-3,4.279-6.4,8.722-10,4.07-3.3,8.684-7.039,11.383-11.414,5.926-9.629-.66-19.1-.728-19.192a.95.95,0,0,0-1.7.75,20.226,20.226,0,0,1-2.27,12.775C206.39,16.59,203.163,18.859,199.428,21.486Z" transform="translate(-183.606 0)" fill="#db380e"/>
      <path id="Path_151" data-name="Path 151" d="M273.905,107.778A.95.95,0,0,0,273,106.13c-.91.346-22.29,8.587-22.29,18.545,0,6.864,2.932,10.49,5.073,13.138a10,10,0,0,1,1.8,2.7c.673,2.207-.921,6.2-1.591,7.546a.95.95,0,0,0,1.394,1.2c.368-.255,8.984-6.348,7.439-13.687a18.1,18.1,0,0,0-3.156-6.627c-1.874-2.787-3.227-4.8-1.174-8.518C262.9,116.094,273.795,107.86,273.905,107.778Z" transform="translate(-235.509 -82.045)" fill="#db380e"/>
    </g>
    <g id="Group_15" data-name="Group 15" transform="translate(66.142 61.087)">
      <path id="Path_152" data-name="Path 152" d="M106.778,281.488a3.374,3.374,0,0,0,.5,3.149c2.318,3.218,10.527,4.989,23.117,4.989h0c1.706,0,3.507-.034,5.352-.1,20.129-.72,27.595-6.991,27.9-7.258a.95.95,0,0,0-.872-1.635c-7.089,1.936-20.327,2.623-29.508,2.623-10.274,0-15.506-.74-16.787-1.287.657-.9,4.711-2.514,9.735-3.5a.95.95,0,0,0-.183-1.883C123.09,276.584,108.322,276.82,106.778,281.488Z" transform="translate(-97.429 -275.029)" fill="#73a1fb"/>
      <path id="Path_153" data-name="Path 153" d="M369.273,269.718a19.859,19.859,0,0,0-8.255,2.169.951.951,0,0,0,.448,1.789c.088,0,8.856.072,9.65,5.081.7,4.322-8.3,11.324-11.823,13.658a.95.95,0,0,0,.723,1.722c.837-.179,20.476-4.507,18.4-15.941C377.149,271.189,372.744,269.718,369.273,269.718Z" transform="translate(-292.569 -269.718)" fill="#73a1fb"/>
      <path id="Path_154" data-name="Path 154" d="M188.377,342.2a.951.951,0,0,0-.389-.953l-4.709-3.3a.954.954,0,0,0-.789-.14,92.614,92.614,0,0,1-12.123,2.1,84.132,84.132,0,0,1-9.191.486c-7.147,0-11.821-.84-12.5-1.456-.09-.173-.062-.252-.046-.3a2.4,2.4,0,0,1,1.214-.914.951.951,0,0,0-.553-1.816c-4.724,1.14-7.033,2.734-6.865,4.738.3,3.553,8.527,5.376,15.484,5.858,1,.068,2.082.1,3.215.1h0c11.568,0,26.4-3.629,26.545-3.666A.948.948,0,0,0,188.377,342.2Z" transform="translate(-125.141 -320.902)" fill="#73a1fb"/>
      <path id="Path_155" data-name="Path 155" d="M164.173,391.455a.95.95,0,0,0-.544-1.746c-.633.017-6.194.268-6.584,3.808a3.682,3.682,0,0,0,.9,2.873c2,2.366,7.387,3.773,16.475,4.3,1.075.065,2.167.1,3.246.1a49.536,49.536,0,0,0,19.662-3.772.951.951,0,0,0,.089-1.671l-5.951-3.633a.957.957,0,0,0-.689-.119c-.038.008-3.816.792-9.518,1.566a30.681,30.681,0,0,1-4.016.221c-5.7,0-12.032-.931-13.247-1.54A.381.381,0,0,1,164.173,391.455Z" transform="translate(-136.438 -362.532)" fill="#73a1fb"/>
      <path id="Path_156" data-name="Path 156" d="M101.987,439.544c26.466-.022,40.67-4.729,43.407-7.691a3.277,3.277,0,0,0,.991-2.688,4.151,4.151,0,0,0-1.82-2.677.96.96,0,0,0-1.24.169.939.939,0,0,0-.006,1.237c.167.215.263.574-.225,1.063-1.094,1.022-12.127,4.123-30.5,5.055-2.516.131-5.156.2-7.845.2-16.448,0-28.486-2.253-30.066-3.566.609-.875,4.867-2.273,9.4-3.064a.951.951,0,0,0-.291-1.879c-.128.017-.561.043-1.063.074-7.471.456-16.105,1.473-16.556,5.322a3.918,3.918,0,0,0,1.036,3.165c2.018,2.267,7.817,5.281,34.779,5.281Z" transform="translate(-66.142 -390.367)" fill="#73a1fb"/>
      <path id="Path_157" data-name="Path 157" d="M206.993,456.277a.95.95,0,0,0-1.1.216c-.039.042-4.018,4.2-15.982,6.646-4.58.918-13.178,1.383-25.554,1.383-12.4,0-24.2-.488-24.315-.493a.951.951,0,0,0-.26,1.874,141.517,141.517,0,0,0,29.393,2.926,137.009,137.009,0,0,0,23.452-1.958c13.9-2.436,14.87-9.327,14.905-9.62A.951.951,0,0,0,206.993,456.277Z" transform="translate(-122.543 -413.956)" fill="#73a1fb"/>
    </g>
  </g>
</svg>
